Coordinates
version=1
nRows=9
nColumns=36
inDegrees=yes

Units are S.I. units (second, meters, Newtons, ...)
If the header above contains a line with 'inDegrees', this indicates whether rotational values are in degrees (yes) or radians (no).

endheader
time	pelvis_tilt	pelvis_list	pelvis_rotation	pelvis_tx	pelvis_ty	pelvis_tz	hip_flexion_r	hip_adduction_r	hip_rotation_r	knee_angle_r	knee_angle_r_beta	ankle_angle_r	subtalar_angle_r	mtp_angle_r	hip_flexion_l	hip_adduction_l	hip_rotation_l	knee_angle_l	knee_angle_l_beta	ankle_angle_l	subtalar_angle_l	mtp_angle_l	lumbar_extension	lumbar_bending	lumbar_rotation	arm_flex_r	arm_add_r	arm_rot_r	elbow_flex_r	pro_sup_r	arm_flex_l	arm_add_l	arm_rot_l	elbow_flex_l	pro_sup_l
      0.97916670	     -9.50689948	      5.55077633	     -2.38385196	     -0.44526939	      1.25912019	     -0.03344333	     -3.69727235	     -4.04737211	     -1.42148000	     28.87327380	      0.50393369	    -20.19439477	    -10.73917346	     -7.49999987	     45.73106155	     -2.60478269	     -7.33689086	     59.60062510	      1.04022714	    -14.87664235	    -15.36680819	     -7.49999987	      1.10891575	     -6.02363417	      6.77157175	     64.41297157	    -31.22157306	     26.42122007	     94.65219443	     87.05937906	     67.82838079	    -25.38338222	     24.52921356	     93.21841951	     70.89718436
      0.98333330	     -9.45200807	      5.50008898	     -2.70043837	     -0.43895436	      1.26288568	     -0.03358831	     -3.20892110	     -4.14069989	     -1.15067228	     29.62358957	      0.51702917	    -21.84818717	    -10.31167853	     -7.49999987	     45.26963955	     -2.68967789	     -7.11566223	     57.88644775	      1.01030911	    -16.37230244	    -14.88811970	     -7.49999987	      1.19592933	     -5.80774755	      7.19550260	     64.10481461	    -32.18904711	     26.77228751	     95.10375393	     87.04842116	     67.21341597	    -26.16118746	     24.76247696	     93.88552870	     71.08611016
      0.98750000	     -9.23523610	      5.08073645	     -2.75494965	     -0.43336471	      1.26583722	     -0.03373927	     -2.78841570	     -3.87359231	     -1.34354581	     30.63593285	      0.53469790	    -23.18328531	     -9.73763187	     -7.49999987	     44.64352238	     -2.94453569	     -6.72825687	     56.31352838	      0.98285648	    -17.23110580	    -14.23763560	     -7.49999987	      1.06124669	     -5.22112329	      7.31230228	     63.76380250	    -32.92035911	     26.77150480	     95.13704687	     87.04079901	     66.66234225	    -26.75444340	     24.90355768	     94.04003104	     71.13638691
      0.99166670	     -9.23985505	      5.22958804	     -3.20461639	     -0.42758639	      1.27136017	     -0.03210140	     -2.02415850	     -4.29485034	     -1.33951407	     31.46883473	      0.54923478	    -25.65832595	     -9.03339156	     -7.49999987	     43.98754669	     -3.10762623	     -6.88359518	     54.05079901	      0.94336441	    -19.16173746	    -13.48800356	     -7.49999987	      0.86278299	     -5.44886751	      7.68314717	     63.13715654	    -33.88721760	     27.09064473	     96.78554252	     87.01323596	     65.91394149	    -28.01735338	     25.17927665	     95.95737720	     71.42587399
      0.99583330	     -9.01992773	      4.88192994	     -3.39105038	     -0.42311027	      1.27318947	     -0.03151358	     -1.14380373	     -4.09217558	     -1.28615683	     33.04086613	      0.57667190	    -27.76629637	     -8.50875768	     -7.49999987	     43.49642378	     -3.47117422	     -6.42130844	     52.39368646	      0.91444234	    -20.34823958	    -12.28354420	     -7.49999987	      0.22576249	     -5.04158898	      7.76751927	     62.78044230	    -34.92833808	     26.84251130	     97.77861759	     86.91132388	     65.44794362	    -29.28467440	     25.23839664	     97.48555084	     71.79677976
      1.00000000	     -8.87480385	      4.67059658	     -3.53904036	     -0.41743064	      1.27212106	     -0.03091482	     -0.01286180	     -4.24914686	     -1.79238735	     34.98544647	      0.61061123	    -28.90725927	     -7.95161283	     -7.49999987	     43.27668560	     -3.77607949	     -5.90800381	     50.90005328	      0.88837352	    -21.46879442	    -10.43972962	     -7.49999987	     -0.16398433	     -4.63163576	      7.61462900	     63.11389691	    -35.34498177	     27.20731173	     98.17908520	     84.60280518	     64.68378046	    -30.93821019	     24.97011361	     99.03787167	     71.62969923
      1.00416670	     -8.82493811	      4.37194294	     -3.58891842	     -0.41293972	      1.27528715	     -0.03118103	      1.18083056	     -4.15544052	     -2.05757689	     36.97173950	      0.64527858	    -29.88181640	     -7.34982097	     -7.49999987	     43.13560260	     -4.11537420	     -5.69660015	     49.41817891	      0.86250993	    -22.14186252	     -8.89530272	     -7.49999987	     -0.49765389	     -4.28857223	      7.42659903	     62.83132856	    -36.09289537	     27.10755639	     98.99287254	     84.79330382	     64.20959466	    -32.47308419	     24.91415805	    100.39058956	     72.07807237
      1.00833330	     -8.45068163	      4.18848796	     -3.60443901	     -0.40552472	      1.28161447	     -0.03204164	      1.98905890	     -4.54191760	     -3.27624485	     38.97027172	      0.68015955	    -30.41033680	     -6.70422480	     -7.49999987	     42.26979479	     -4.17734681	     -5.68608182	     47.82221446	      0.83465510	    -22.82405070	     -7.83939463	     -7.49999987	     -1.09488208	     -4.05158311	      7.17726227	     62.41548967	    -36.75752520	     26.86310560	     99.65878091	     84.95615294	     63.76825979	    -33.82556486	     24.84870846	    101.47175608	     72.50943204
      1.01250000	     -8.20684667	      4.03165160	     -3.46974804	     -0.40071162	      1.27931966	     -0.03148049	      2.92592629	     -4.76372883	     -4.11753014	     41.44764158	      0.72339781	    -30.80386871	     -6.32841901	     -7.49999987	     41.91092348	     -4.17912232	     -5.10119759	     46.97010139	      0.81978292	    -22.97380157	     -6.02434502	     -7.49999987	     -1.63098300	     -3.97350229	      6.74909738	     61.96378551	    -37.66237414	     26.53281807	    100.54386395	     85.07678684	     63.68037636	    -35.23757692	     24.73008126	    102.53531403	     72.86597988
